<?xml version="1.0"?>
<svg xmlns="http://www.w3.org/2000/svg" xmlns:xlink="http://www.w3.org/1999/xlink" version="1.1" id="Capa_1" x="0px" y="0px" width="512px" height="512px" viewBox="0 0 400.311 400.311" style="enable-background:new 0 0 400.311 400.311;" xml:space="preserve" class=""><g><g>
	<path d="M380.004,0.001H20.305C9.09,0.001,0,9.092,0,20.306v359.699c0,11.215,9.09,20.305,20.305,20.305h359.699   c11.217,0,20.307-9.09,20.307-20.305v-359.7C400.309,9.092,391.219,0.001,380.004,0.001z M307.377,251.97   c4.59,4.592,4.594,12.033,0.002,16.623l-38.783,38.785c-4.594,4.59-12.033,4.589-16.623,0l-51.818-51.814l-51.816,51.814   c-4.588,4.59-12.031,4.59-16.621,0l-38.785-38.785c-4.59-4.591-4.59-12.032,0-16.623l51.816-51.815L92.933,148.34   c-4.59-4.591-4.59-12.032,0-16.622l38.785-38.786c4.59-4.59,12.033-4.59,16.621,0l51.816,51.816l51.816-51.816   c4.59-4.589,12.033-4.589,16.623,0l38.783,38.786c4.592,4.59,4.592,12.032,0,16.622l-51.814,51.815L307.377,251.97z" data-original="#000000" class="active-path" data-old_color="#000000" fill="#EB165F"/>
</g></g> </svg>
